<svg xmlns="http://www.w3.org/2000/svg" width="999.874" height="199.254" viewBox="0 0 2218 442">
  <metadata><?xpacket begin="﻿" id="W5M0MpCehiHzreSzNTczkc9d"?>
<x:xmpmeta xmlns:x="adobe:ns:meta/" x:xmptk="Adobe XMP Core 5.6-c138 79.159824, 2016/09/14-01:09:01        ">
   <rdf:RDF xmlns:rdf="http://www.w3.org/1999/02/22-rdf-syntax-ns#">
      <rdf:Description rdf:about=""/>
   </rdf:RDF>
</x:xmpmeta>





















<?xpacket end="w"?></metadata>
<defs>
    <style>
      .cls-1 {
        fill: #ffffff;
        fill-rule: evenodd;
      }
    </style>
  </defs>
  <path id="Ellipse_1_copy_2" data-name="Ellipse 1 copy 2" class="cls-1" d="M3702.99,967.99H3565.52L3391.27,793.521V968h-90.14V526h90.14V700.48l174.25-174.469h137.47L3482.28,747Zm-659.24.01c-121.9,0-220.72-98.945-220.72-221s98.82-221,220.72-221,220.72,98.945,220.72,221S3165.65,968,3043.75,968Zm0.78-348.7a128.47,128.47,0,1,0,128.3,128.47A128.384,128.384,0,0,0,3044.53,619.3ZM2570.25,968c-121.9,0-220.72-98.945-220.72-221s98.82-221,220.72-221,220.72,98.945,220.72,221S2692.15,968,2570.25,968Zm0.76-348.7a128.47,128.47,0,1,0,128.32,128.47A128.392,128.392,0,0,0,2571.01,619.3Zm-374.23,0a128.464,128.464,0,1,0,90.8,219.232l64.58,64.661a219.891,219.891,0,0,1-156.14,64.8c-121.9,0-220.72-98.941-220.72-220.99s98.82-220.989,220.72-220.989a219.887,219.887,0,0,1,156.14,64.8l-65.36,65.44A127.8,127.8,0,0,0,2196.78,619.3ZM1836.3,753.408L1705.71,883.882,1575.11,753.4V968H1485V663.374l-0.01-.01V526.017l220.72,220.518,220.72-220.518v114.7h0.01V968H1836.3V753.408Z" transform="translate(-1485 -526)"/>
</svg>
