<?xml version="1.0" encoding="iso-8859-1"?>
<!-- Generator: Adobe Illustrator 19.0.0, SVG Export Plug-In . SVG Version: 6.00 Build 0)  -->
<svg version="1.1" id="Layer_1" xmlns="http://www.w3.org/2000/svg" xmlns:xlink="http://www.w3.org/1999/xlink" x="0px" y="0px"
	 viewBox="0 0 511.993 511.993" style="enable-background:new 0 0 511.993 511.993;" xml:space="preserve">
<polygon style="fill:#F6BB42;" points="202.66,203.805 149.325,179.556 24.304,236.008 152.302,287.007 223.8,262.647 "/>
<polygon style="fill:#FFCE54;" points="243.3,318.786 226.3,271.96 149.325,291.506 16.304,243.804 5.804,400.504 151.802,454.503 
	283.979,401.504 292.307,318.786 "/>
<polygon style="fill:#ED5565;" points="435.335,59.011 316.228,159.993 186.801,168.884 248.136,318.786 398.523,308.115 
	501.804,208.477 "/>
<polygon style="fill:#DA4453;" points="283.979,59.011 186.801,160.009 330.743,160.009 419.851,59.011 "/>
<g>
	<path style="fill:#080808;" d="M156.872,225.601c-4.172-4.172-10.922-4.172-15.086,0c-4.164,4.156-4.164,10.906,0,15.078
		s10.914,4.172,15.086,0C161.036,236.508,161.036,229.758,156.872,225.601z"/>
	<path style="fill:#080808;" d="M60.873,315.662c4.164-4.188,4.164-10.938,0-15.094s-10.921-4.156-15.085,0s-4.164,10.906,0,15.094
		C49.952,319.817,56.709,319.817,60.873,315.662z"/>
	<path style="fill:#080808;" d="M114.201,390.005c4.172-4.156,4.172-10.906,0-15.078c-4.164-4.172-10.914-4.172-15.078,0
		c-4.172,4.172-4.172,10.922,0,15.078C103.287,394.177,110.037,394.177,114.201,390.005z"/>
	<path style="fill:#080808;" d="M184.45,375.224c-4.164,4.172-4.164,10.938,0,15.094s10.921,4.156,15.085,0s4.164-10.922,0-15.094
		C195.371,371.067,188.613,371.067,184.45,375.224z"/>
	<path style="fill:#080808;" d="M211.113,337.895c-4.164,4.172-4.164,10.922,0,15.078c4.171,4.188,10.921,4.188,15.085,0
		c4.172-4.156,4.172-10.906,0-15.078C222.035,333.724,215.285,333.724,211.113,337.895z"/>
	<path style="fill:#080808;" d="M511.131,205.508L444.882,50.652c-1.719-4.047-5.766-6.609-10.141-6.453l-148.793,4.75
		c-2.672,0.094-5.219,1.172-7.125,3.047L172.629,156.322c-3.133,3.078-4.062,7.765-2.336,11.812l4.641,10.844l-21.726-8.5
		c-2.5-0.969-5.266-0.969-7.758,0L6.781,224.633C2.687,226.227,0,230.164,0,234.571v168.418c0,4.391,2.687,8.328,6.781,9.922
		l138.669,54.155c1.242,0.5,2.562,0.734,3.875,0.734c1.32,0,2.633-0.234,3.883-0.734l138.661-54.155
		c4.094-1.594,6.797-5.531,6.797-9.922v-75.203l96.812-3.109c2.671-0.078,5.218-1.172,7.14-3.047l106.186-104.325
		C511.928,214.226,512.865,209.539,511.131,205.508z M290.791,70.136l117.326-3.75l-83.733,82.264l-117.317,3.75L290.791,70.136z
		 M196.051,174.102l125.896-4.031l57.234,133.778l-125.889,4.031L196.051,174.102z M138.661,441.518L21.328,395.692V250.179
		l117.333,45.827L138.661,441.518L138.661,441.518z M149.325,277.257L39.983,234.57l109.342-42.703l37.374,14.594l20.602,48.171
		L149.325,277.257z M277.323,395.692l-117.327,45.826V296.006l55.702-21.749l20.844,48.717c1.679,3.938,5.546,6.469,9.804,6.469
		c0.117,0,0.227,0,0.344,0l30.633-0.984V395.692z M398.805,295.475l-57.233-133.794l89.842-88.279l57.233,133.794L398.805,295.475z"
		/>
	<path style="fill:#080808;" d="M303.057,117.978c5.469,2.188,11.688-0.469,13.875-5.938s-0.469-11.671-5.938-13.859
		c-5.469-2.203-11.672,0.453-13.859,5.922C294.932,109.572,297.603,115.791,303.057,117.978z"/>
	<path style="fill:#080808;" d="M258.042,218.445c2.188-5.469-0.469-11.671-5.938-13.859c-5.469-2.203-11.68,0.453-13.867,5.922
		c-2.195,5.468,0.461,11.687,5.93,13.875S255.847,223.914,258.042,218.445z"/>
	<path style="fill:#080808;" d="M326.774,281.866c5.469,2.188,11.672-0.469,13.859-5.938c2.203-5.469-0.453-11.672-5.922-13.859
		c-5.469-2.203-11.688,0.453-13.875,5.922S321.306,279.663,326.774,281.866z"/>
	<path style="fill:#080808;" d="M301.603,223.023c5.469,2.188,11.672-0.469,13.859-5.938c2.187-5.469-0.469-11.671-5.938-13.859
		c-5.453-2.188-11.672,0.469-13.859,5.938C293.478,214.617,296.135,220.82,301.603,223.023z"/>
	<path style="fill:#080808;" d="M269.339,283.225c5.469,2.188,11.688-0.469,13.875-5.938s-0.469-11.672-5.938-13.875
		c-5.469-2.188-11.68,0.469-13.867,5.938C261.214,274.819,263.87,281.038,269.339,283.225z"/>
	<path style="fill:#080808;" d="M428.632,129.072c-5.469-2.188-11.687,0.469-13.874,5.937c-2.188,5.469,0.469,11.656,5.938,13.859
		c5.468,2.188,11.671-0.469,13.874-5.938C436.757,137.478,434.1,131.26,428.632,129.072z"/>
	<path style="fill:#080808;" d="M445.866,207.711c5.469,2.188,11.672-0.469,13.875-5.938c2.188-5.469-0.469-11.672-5.938-13.859
		c-5.469-2.203-11.672,0.453-13.875,5.922C437.741,199.305,440.397,205.508,445.866,207.711z"/>
	<path style="fill:#080808;" d="M387.993,169.665c-5.469-2.203-11.688,0.453-13.875,5.922s0.469,11.671,5.938,13.875
		c5.469,2.188,11.672-0.469,13.859-5.937C396.118,178.056,393.462,171.852,387.993,169.665z"/>
	<path style="fill:#080808;" d="M413.164,228.508c-5.469-2.203-11.688,0.453-13.875,5.922c-2.188,5.468,0.469,11.671,5.938,13.859
		c5.469,2.203,11.672-0.453,13.859-5.922C421.289,236.898,418.633,230.695,413.164,228.508z"/>
	<path style="fill:#080808;" d="M420.898,178.79c-5.469-2.188-11.672,0.469-13.875,5.938c-2.188,5.468,0.469,11.687,5.938,13.875
		s11.687-0.469,13.874-5.938S426.366,180.977,420.898,178.79z"/>
</g>
<g>
</g>
<g>
</g>
<g>
</g>
<g>
</g>
<g>
</g>
<g>
</g>
<g>
</g>
<g>
</g>
<g>
</g>
<g>
</g>
<g>
</g>
<g>
</g>
<g>
</g>
<g>
</g>
<g>
</g>
</svg>
